<svg xmlns="http://www.w3.org/2000/svg" viewBox="0 0 1200 360" width="1200" height="360">
  <!-- Horizontal lockup: mark + wordmark + tagline.
       Use this on README headers, slide decks, and the site nav. -->
  <defs>
    <linearGradient id="bg" x1="0" y1="0" x2="1" y2="1">
      <stop offset="0" stop-color="#7C5CE6"/>
      <stop offset="1" stop-color="#5B3FCF"/>
    </linearGradient>
    <linearGradient id="fur" x1="0" y1="0" x2="0" y2="1">
      <stop offset="0" stop-color="#D9B98F"/>
      <stop offset="1" stop-color="#B68F62"/>
    </linearGradient>
    <linearGradient id="db" x1="0" y1="0" x2="1" y2="1">
      <stop offset="0" stop-color="#7C5CE6"/>
      <stop offset="1" stop-color="#5B3FCF"/>
    </linearGradient>
  </defs>

  <!-- Mark — same artwork as sloth-mark.svg, scaled down. -->
  <g transform="translate(20, 20) scale(0.625)">
    <rect x="0" y="0" width="512" height="512" rx="96" fill="url(#bg)"/>
    <rect x="56" y="92" width="400" height="22" rx="11" fill="#3D2817" opacity="0.85"/>
    <ellipse cx="100" cy="103" rx="18" ry="6" fill="#5C3D26" opacity="0.6"/>
    <path d="M 320 110 C 340 90, 360 100, 360 130 L 348 200 C 348 215, 332 215, 328 200 Z" fill="url(#fur)"/>
    <path d="M 192 110 C 172 90, 152 100, 152 130 L 164 200 C 164 215, 180 215, 184 200 Z" fill="url(#fur)"/>
    <ellipse cx="256" cy="290" rx="120" ry="140" fill="url(#fur)"/>
    <ellipse cx="256" cy="320" rx="92" ry="100" fill="#EBD3AE"/>
    <path d="M 188 300 Q 188 268, 222 268 Q 256 268, 256 300 Q 256 268, 290 268 Q 324 268, 324 300 Q 324 348, 290 348 Q 256 348, 256 320 Q 256 348, 222 348 Q 188 348, 188 300 Z" fill="#3D2817"/>
    <circle cx="222" cy="304" r="11" fill="#FFFFFF"/>
    <circle cx="290" cy="304" r="11" fill="#FFFFFF"/>
    <circle cx="225" cy="306" r="5.5" fill="#1A0F08"/>
    <circle cx="293" cy="306" r="5.5" fill="#1A0F08"/>
    <ellipse cx="256" cy="358" rx="9" ry="6" fill="#3D2817"/>
    <path d="M 240 384 Q 256 396, 272 384" stroke="#3D2817" stroke-width="5" stroke-linecap="round" fill="none"/>
    <ellipse cx="200" cy="354" rx="10" ry="6" fill="#E8A88E" opacity="0.5"/>
    <ellipse cx="312" cy="354" rx="10" ry="6" fill="#E8A88E" opacity="0.5"/>
    <path d="M 432 92 Q 460 70, 478 80 Q 470 100, 442 105 Q 432 100, 432 92 Z" fill="#6BBF59"/>
    <path d="M 442 92 L 470 82" stroke="#3A7A2E" stroke-width="2" stroke-linecap="round"/>
  </g>

  <!-- Wordmark. -->
  <text x="380" y="200"
        font-family="system-ui, -apple-system, 'Segoe UI', sans-serif"
        font-size="148" font-weight="800" fill="#0F0A2A" letter-spacing="-3">
    Sloth<tspan fill="url(#db)">DB</tspan>
  </text>

  <!-- Tagline. -->
  <text x="384" y="260"
        font-family="system-ui, -apple-system, 'Segoe UI', sans-serif"
        font-size="32" font-weight="500" fill="#5B5278" letter-spacing="0.5">
    Run analytics faster.
  </text>
</svg>
