<svg xmlns="http://www.w3.org/2000/svg" viewBox="0 0 1200 360" width="1200" height="360">
  <!-- Wordmark v2 variant for dark backgrounds (LinkedIn cover, dark hero). -->
  <defs>
    <radialGradient id="bg" cx="0.5" cy="0.4" r="0.65">
      <stop offset="0"   stop-color="#9275F0"/>
      <stop offset="0.6" stop-color="#7C5CE6"/>
      <stop offset="1"   stop-color="#5B3FCF"/>
    </radialGradient>
    <linearGradient id="fur" x1="0" y1="0" x2="0" y2="1">
      <stop offset="0" stop-color="#E5C9A1"/>
      <stop offset="1" stop-color="#B68F62"/>
    </linearGradient>
    <linearGradient id="face" x1="0" y1="0" x2="0" y2="1">
      <stop offset="0" stop-color="#F4DDB9"/>
      <stop offset="1" stop-color="#E5C9A1"/>
    </linearGradient>
    <linearGradient id="db" x1="0" y1="0" x2="1" y2="1">
      <stop offset="0" stop-color="#A78BFA"/>
      <stop offset="1" stop-color="#7C5CE6"/>
    </linearGradient>
  </defs>

  <g transform="translate(20, 20) scale(0.625)">
    <circle cx="256" cy="256" r="256" fill="url(#bg)"/>
    <circle cx="256" cy="256" r="244" fill="none" stroke="#FFFFFF" stroke-opacity="0.06" stroke-width="2"/>
    <ellipse cx="256" cy="270" rx="170" ry="160" fill="url(#fur)"/>
    <ellipse cx="118" cy="190" rx="34" ry="42" fill="url(#fur)" transform="rotate(-18 118 190)"/>
    <ellipse cx="394" cy="190" rx="34" ry="42" fill="url(#fur)" transform="rotate(18 394 190)"/>
    <ellipse cx="256" cy="282" rx="138" ry="132" fill="url(#face)"/>
    <ellipse cx="200" cy="262" rx="42" ry="34" fill="#3D2817" transform="rotate(-12 200 262)"/>
    <ellipse cx="312" cy="262" rx="42" ry="34" fill="#3D2817" transform="rotate(12 312 262)"/>
    <path d="M 168 262 Q 200 248, 232 262" stroke="#1A0F08" stroke-width="6" stroke-linecap="round" fill="none"/>
    <path d="M 280 262 Q 312 248, 344 262" stroke="#1A0F08" stroke-width="6" stroke-linecap="round" fill="none"/>
    <circle cx="200" cy="265" r="2.5" fill="#1A0F08"/>
    <circle cx="312" cy="265" r="2.5" fill="#1A0F08"/>
    <ellipse cx="256" cy="322" rx="11" ry="6" fill="#3D2817"/>
    <path d="M 232 358 Q 256 372, 280 358" stroke="#3D2817" stroke-width="5" stroke-linecap="round" fill="none"/>
    <ellipse cx="170" cy="328" rx="14" ry="8" fill="#E8A88E" opacity="0.4"/>
    <ellipse cx="342" cy="328" rx="14" ry="8" fill="#E8A88E" opacity="0.4"/>
  </g>

  <text x="380" y="200"
        font-family="system-ui, -apple-system, 'Segoe UI', sans-serif"
        font-size="148" font-weight="800" fill="#FFFFFF" letter-spacing="-3">
    Sloth<tspan fill="url(#db)">DB</tspan>
  </text>

  <text x="384" y="260"
        font-family="system-ui, -apple-system, 'Segoe UI', sans-serif"
        font-size="32" font-weight="500" fill="#A8A1C9" letter-spacing="0.5">
    Run analytics faster.
  </text>
</svg>
